<svg xmlns="http://www.w3.org/2000/svg" version="1.1" xmlns:xlink="http://www.w3.org/1999/xlink" xmlns:svgjs="http://svgjs.com/svgjs" width="1440" height="560" preserveAspectRatio="none" viewBox="0 0 1440 560">
    <g mask="url(&quot;#SvgjsMask1010&quot;)" fill="none">
        <rect width="1440" height="560" x="0" y="0" fill="rgba(13, 102, 103, 1)"></rect>
        <path d="M0,489.422C89.228,477.355,142.999,389.005,219.903,342.176C299.4,293.768,409.566,288.432,459.287,209.749C510.079,129.37,509.228,21.413,479.713,-68.972C452.036,-153.727,369.165,-202.449,304.604,-263.94C246.595,-319.191,189.956,-370.742,120.665,-410.947C31.902,-462.451,-56.188,-555.166,-155.969,-531.182C-255.025,-507.372,-283.352,-380.059,-345.065,-299.001C-402.201,-223.956,-485.318,-164.845,-505.093,-72.621C-525.385,22.012,-497.362,120.827,-453.596,207.15C-410.942,291.28,-341.851,357.48,-261.766,407.316C-182.52,456.63,-92.495,501.931,0,489.422" fill="#0a4d4d"></path>
        <path d="M1440 1111.95C1541.448 1120.406 1621.67 1030.442 1702.913 969.101 1778.5140000000001 912.02 1855.311 853.803 1895.51 768.025 1935.9279999999999 681.782 1943.8319999999999 583.741 1927.4850000000001 489.90999999999997 1911.443 397.826 1866.34 314.245 1804.278 244.351 1742.739 175.04500000000002 1666.22 118.41899999999998 1576.609 94.75200000000001 1488.332 71.43700000000001 1397.488 91.41300000000001 1308.9 113.51600000000002 1216.925 136.46300000000002 1123.287 160.90800000000002 1053.653 225.228 979.573 293.655 918.175 383.19 908.293 483.552 898.557 582.434 945.8879999999999 677.799 1000.947 760.509 1050.4859999999999 834.9259999999999 1134.03 871.6320000000001 1203.823 927.498 1283.419 991.211 1338.397 1103.481 1440 1111.95" fill="#108081"></path>
    </g>
    <defs>
        <mask id="SvgjsMask1010">
            <rect width="1440" height="560" fill="#ffffff"></rect>
        </mask>
    </defs>
</svg>